<svg xmlns="http://www.w3.org/2000/svg" width="32" height="32" viewBox="0 0 32 32" fill="none">
  <rect width="32" height="32" rx="8" fill="#4f46e5"/>
  <g transform="translate(4, 4)">
    <path d="m12 3-1.912 5.813a2 2 0 0 1-1.275 1.275L3 12l5.813 1.912a2 2 0 0 1 1.275 1.275L12 21l1.912-5.813a2 2 0 0 1 1.275-1.275L21 12l-5.813-1.912a2 2 0 0 1-1.275-1.275Z" stroke="#ffffff" stroke-width="2" stroke-linecap="round" stroke-linejoin="round"/>
    <path d="m5 3 1 2.5L8.5 6 6 7 5 9.5 4 7 1.5 6 4 5.5Z" stroke="#ffffff" stroke-width="1.5" stroke-linecap="round" stroke-linejoin="round" fill="#ffffff"/>
    <path d="m19 17 1 2.5 2.5.5-2.5 1-1 2.5-1-2.5-2.5-1 2.5-1Z" stroke="#ffffff" stroke-width="1.5" stroke-linecap="round" stroke-linejoin="round" fill="#ffffff"/>
  </g>
</svg>